<svg xmlns="http://www.w3.org/2000/svg" version="1.0" viewBox="0 0 48 48" xml:space="preserve"><path d="M45 40a1 1 0 0 1-1 1H4a1 1 0 0 1-1-1V8a1 1 0 0 1 2 0v31h39a1 1 0 0 1 1 1zM7 28V12a1 1 0 0 1 1-1h2V8a1 1 0 0 1 2 0v3h2a1 1 0 0 1 1 1v16a1 1 0 0 1-1 1h-2v3a1 1 0 1 1-2 0v-3H8a1 1 0 0 1-1-1zm2-1h4V13H9v14zm8 5v-9a1 1 0 0 1 1-1h2v-3a1 1 0 0 1 2 0v3h2a1 1 0 0 1 1 1v9a1 1 0 0 1-1 1h-2v3a1 1 0 1 1-2 0v-3h-2a1 1 0 0 1-1-1zm2-1h4v-7h-4v7zm8-1V19a1 1 0 0 1 1-1h2v-3a1 1 0 1 1 2 0v3h2a1 1 0 0 1 1 1v11a1 1 0 0 1-1 1h-2v3a1 1 0 1 1-2 0v-3h-2a1 1 0 0 1-1-1zm2-1h4v-9h-4v9zm16-17v14a1 1 0 0 1-1 1h-2v3a1 1 0 1 1-2 0v-3h-2a1 1 0 0 1-1-1V12a1 1 0 0 1 1-1h2V8a1 1 0 1 1 2 0v3h2a1 1 0 0 1 1 1zm-2 1h-4v12h4V13z" fill="#ffffff" class="fill-000000"></path></svg>